<?xml version="1.0" standalone="no"?><!DOCTYPE svg PUBLIC "-//W3C//DTD SVG 1.1//EN" "http://www.w3.org/Graphics/SVG/1.1/DTD/svg11.dtd"><svg t="1670067395290" class="icon" viewBox="0 0 1024 1024" version="1.1" xmlns="http://www.w3.org/2000/svg" p-id="27796" xmlns:xlink="http://www.w3.org/1999/xlink" width="200" height="200"><path d="M512 944c-4.8-34.72-9.088-129.184-24.832-215.04s-42.88-162.944-93.44-162.944c-33.504 0-65.28 30.4-88.736 60.736-23.424 30.4-38.496 60.736-38.496 60.736s2.368-31.968-4.48-70.048c-6.816-38.08-22.88-82.272-59.68-106.784-41.664-27.712-84.192-18.144-116.352-1.6a215.808 215.808 0 0 0-53.856 39.936s-1.664-34.656 7.52-83.424c9.216-48.736 29.312-111.648 72.832-168.128 43.52-56.448 106.016-94.816 157.632-119.04 51.616-24.288 92.352-34.4 92.352-34.4s-15.04 8.512-30.144 22.112c-15.04 13.6-30.112 32.256-30.112 52.48 0 9.6 3.328 27.04 12.256 44.16 8.96 17.184 23.424 34.048 45.76 42.56a226.72 226.72 0 0 0 53.92 13.76c12.992 1.536 20.448 0.928 20.448 0.928l13.024-62.4 13.056-62.432 6.72 16 6.688 16H512V944z" fill="#2c2c2c" p-id="27797"></path><path d="M669.248 112.96a32 32 0 0 0-23.552 58.88c20.864 11.936 44.096 34.08 44.096 46.752 0 6.624-6.912 45.184-37.408 56.832a202.24 202.24 0 0 1-37.408 10.496l-20.32-97.312a32 32 0 0 0-60.832-5.824l-5.184 12.352h-33.28l-5.184-12.352a32 32 0 0 0-60.832 5.824l-20.352 97.344a204.576 204.576 0 0 1-37.344-10.528c-30.528-11.648-37.44-50.24-37.44-56.832 0-12.672 23.232-34.816 44.032-46.72a32 32 0 0 0-23.488-58.944c-7.104 1.76-174.848 44.576-267.616 164.992-93.152 120.896-87.264 266.464-86.976 272.64a32 32 0 0 0 55.424 20.16c0.448-0.448 43.584-45.568 90.24-45.568 13.76 0 26.464 3.968 38.784 12.16 47.296 31.456 52.096 117.408 49.984 147.872a32.032 32.032 0 0 0 60.576 16.512c20.736-41.792 66.4-103.68 98.56-103.68 25.408 0 60.192 52.032 81.6 299.904 1.856 21.504 3.392 39.104 4.96 50.464a32 32 0 0 0 31.68 27.616h1.088a32 32 0 0 0 30.848-29.76c13.664-192.896 58.464-348.224 86.4-348.224 31.968 0 77.696 61.888 98.56 103.712a32.032 32.032 0 0 0 60.544-16.64c-0.064-1.056-6.496-110.176 49.984-147.776 12.32-8.192 24.992-12.16 38.784-12.16 46.848 0 89.856 45.216 90.24 45.568a32 32 0 0 0 55.424-20.192c0.32-6.144 6.176-151.68-86.944-272.608-92.8-120.416-260.544-163.2-267.648-164.992z m208.96 348.16c-26.464 0-51.456 7.712-74.272 22.912-39.904 26.56-59.84 70.016-69.632 110.176-27.136-31.616-62.976-60.16-104-60.16-56.96 0-92.992 77.184-115.648 168.512-19.296-91.104-53.696-168.544-120.928-168.544-41.024 0-76.896 28.608-104 60.224-9.824-40.192-29.76-83.648-69.664-110.208a132.096 132.096 0 0 0-74.24-22.88c-28.512 0-54.784 9.12-76.544 20.64 7.488-46.016 25.568-109.024 68.544-164.8 36.064-46.816 87.328-80.352 132.512-103.04a76.576 76.576 0 0 0-0.128 4.64c0 33.472 21.312 94.72 78.592 116.64 38.496 14.72 67.712 16.864 81.696 16.864 4.352 0 6.624-0.192 6.624-0.192 13.984-1.28 25.92-11.616 28.8-25.344L480 259.136h64l14.08 67.424c2.88 13.728 14.816 24.032 28.8 25.344 0 0 2.304 0.192 6.624 0.192 13.984 0 43.2-2.176 81.728-16.864 57.248-21.888 78.56-83.168 78.56-116.64 0-1.6-0.032-3.136-0.128-4.672 45.184 22.72 96.448 56.256 132.544 103.04 42.72 55.488 60.8 118.592 68.384 164.736-21.76-11.456-48-20.544-76.416-20.544z" fill="#2c2c2c" p-id="27798"></path></svg>